<svg height="512" viewBox="0 0 58 54" width="512" xmlns="http://www.w3.org/2000/svg"><g id="038---Cut-Finger" fill="none" transform="translate(0 -1)"><path id="Shape" d="m18 21.15 12.21 6.41c.5136253.7437943.789127 1.6260973.79 2.53 0 8.41 0 6.27-.07 9.88-.0986201 1.4731677-.7067144 2.8661279-1.72 3.94l-3.06 3.09c-1.3682916 1.3697059-2.1408993 3.2239646-2.15 5.16v1.84c0 .5522847-.4477153 1-1 1h-19c-.55228475 0-1-.4477153-1-1 0-3.47.26-5.29-1.15-7.62-.85-1.38-1.85-3.98-1.85-9.03v-12.35c.00000002-1.6568542 1.34314577-3 3-3s2.99999998 1.3431458 3 3v-3c.00000003-1.6568542 1.34314578-2.9999999 3-2.9999999 1.6568542 0 3 1.3431457 3 2.9999999 0-1.19-.1-2.14.88-3.12.8769184-.8789815 2.2046874-1.1269483 3.3397412-.6237115 1.1350539.5032367 1.842825 1.6536793 1.7802588 2.8937115z" fill="#fdd7ad"/><g fill="#f9c795"><path id="Shape" d="m26 27.16v8.84c0 .5522847-.4477153 1-1 1s-1-.4477153-1-1v-9z"/><path id="Shape" d="m18 21v10c0 .5522847-.4477153 1-1 1s-1-.4477153-1-1v-12.82c1.1957287.4227483 1.9964356 1.5517451 2 2.82z"/><path id="Shape" d="m12 22v10c0 .5522847-.4477153 1-1 1s-1-.4477153-1-1v-12.82c1.1957287.4227483 1.9964356 1.5517451 2 2.82z"/><path id="Shape" d="m6 25v9c0 .5522847-.44771525 1-1 1s-1-.4477153-1-1v-11.82c1.1957287.4227483 1.99643563 1.5517451 2 2.82z"/></g><path id="Shape" d="m24 13.5v9.71l-6-.56v-9.15z" fill="#fdd7ad"/><path id="Shape" d="m34.12 27.93-13.54-1.28c-1.1527708-.1064275-2.2158887-.6669455-2.9549815-1.5579838-.7390927-.8910382-1.0934743-2.0394345-.9850185-3.1920162l.08-.87 16.9 1.59 1.94 3.05z" fill="#2980ba"/><path id="Shape" d="m24.88 4c-.4921138-1.96439506-2.374687-3.25109298-4.3836733-2.99614549-2.0089862.25494749-3.5104875 1.9710965-3.4963267 3.99614549v9c0 .5522847.4477153 1 1 1h6c.5522847 0 1-.4477153 1-1 0-9.7.05-9.31-.12-10z" fill="#d1d4d1"/><path id="Shape" d="m25 9-8 3v-5l7.88-3c.12.66.12.63.12 5z" fill="#ecf0f1"/><path id="Shape" d="m55.51 22.3c-3.83-3.81-9.8-3.13-11.78 1.27l-4.8-.45-.78 2.38 1.27 2.92 4.13.39c1.82 5.51 8.78 7.77 12.57 4 2.73-2.75 2.45-7.44-.61-10.51zm-1.61 6.44c-.34 1.73-2.38 2.59-4.52 1.31s-2.94-4.4-1.32-5.69c2.43-1.94 6.45 1.27 5.84 4.38z" fill="#2980ba"/><path id="Shape" d="m39.81 32.55-2.16-23c-.1113085-1.14842169-.6743098-2.20557627-1.5651278-2.93886014-.890818-.73328388-2.036467-1.08261828-3.1848722-.97113986l-.9.08 2.54 27c-4.42 2-5.07 8-1.27 11.78 3.07 3.06 7.76 3.34 10.49.61 3.81-3.77 1.56-10.74-3.95-12.56zm1.81 8.58c-.33 1.69-2.35 2.61-4.52 1.31s-3-4.36-1.32-5.69c2.42-1.94 6.45 1.25 5.84 4.38z" fill="#3b97d3"/><circle id="Oval" cx="36.39" cy="25.39" fill="#d1d4d1" r="1"/></g></svg>