<svg id="Capa_1" enable-background="new 0 0 512 512" height="512" viewBox="0 0 512 512" width="512" xmlns="http://www.w3.org/2000/svg"><g><path d="m417.73 73.76-.01 90.3c.01 52.62-25.46 99.57-64.68 129.15v218.79h-194.08v-218.78c-39.22-29.58-64.69-76.54-64.69-131.28v-63.55c0-13.13 10.65-23.78 23.78-23.78h40.91v-42.27c0-8.93 3.63-17.02 9.48-22.87 5.86-5.85 13.94-9.47 22.87-9.47 17.86 0 32.35 14.48 32.35 32.35v5.83c0-8.93 3.62-17.02 9.47-22.87s13.94-9.47 22.87-9.47c17.87 0 32.35 14.48 32.35 32.34v15.76c0-8.93 3.62-17.02 9.47-22.87 5.86-5.86 13.94-9.48 22.87-9.48 17.87 0 32.35 14.49 32.35 32.35v19.82c0-17.86 14.48-32.35 32.34-32.35 17.87 0 32.35 14.49 32.35 32.35z" fill="#f9ded0"/><path d="m417.73 73.76-.01 90.3c.01 52.62-25.46 99.57-64.68 129.15v218.79h-97.04v-506.16c17.87 0 32.35 14.48 32.35 32.34v15.76c0-8.93 3.62-17.02 9.47-22.87 5.86-5.86 13.94-9.48 22.87-9.48 17.87 0 32.35 14.49 32.35 32.35v19.82c0-17.86 14.48-32.35 32.34-32.35 17.87 0 32.35 14.49 32.35 32.35z" fill="#f7cdbf"/></g></svg>